<svg width="391" height="313" viewBox="0 0 391 313" fill="none" xmlns="http://www.w3.org/2000/svg">
<path d="M390.33 312.16H0L57.13 220.37H333.12L390.33 312.16ZM116.4 308.33L136.83 224.04L59.28 224.07L6.58 308.4L116.4 308.34V308.33Z" fill="white"/>
<path d="M315.78 193.07L74.3 193.2L132.15 100.52H258.08L315.78 193.07ZM145.44 189.31L166.16 104.36L134.15 104.32L81.16 189.19L145.44 189.31Z" fill="white"/>
<path d="M241.47 74.02L148.73 74.09L195.22 0L241.47 74.02ZM174.65 70.17L186.01 22.02L155.53 70.31C162.55 70.51 168.33 70.5 174.65 70.17Z" fill="white"/>
</svg>
