<svg width="24" height="24" viewBox="0 0 24 24" fill="none" xmlns="http://www.w3.org/2000/svg">
<path d="M22.33 19.2586H1.99997L4.97553 14.4778H19.3502L22.33 19.2586ZM8.06256 19.0591L9.12664 14.6689L5.08751 14.6705L2.34268 19.0627L8.06256 19.0596V19.0591Z" fill="#004583"/>
<path d="M18.4471 13.0559L5.86981 13.0627L8.88288 8.23553H15.4418L18.4471 13.0559ZM9.57508 12.8601L10.6543 8.43554L8.98705 8.43345L6.22711 12.8538L9.57508 12.8601Z" fill="#004583"/>
<path d="M14.5767 6.85527L9.74646 6.85891L12.1679 3L14.5767 6.85527ZM11.0965 6.65474L11.6882 4.14689L10.1006 6.66203C10.4663 6.67245 10.7673 6.67193 11.0965 6.65474Z" fill="#004583"/>
</svg>
